<mxfile host="app.diagrams.net" agent="Mozilla/5.0 (Windows NT 10.0; Win64; x64) AppleWebKit/537.36 (KHTML, like Gecko) Chrome/127.0.0.0 Safari/537.36" version="24.7.6">
  <diagram name="Page-1" id="2YBvvXClWsGukQMizWep">
    <mxGraphModel dx="1194" dy="778" grid="1" gridSize="10" guides="1" tooltips="1" connect="1" arrows="1" fold="1" page="1" pageScale="1" pageWidth="850" pageHeight="1100" math="0" shadow="0">
      <root>
        <mxCell id="0" />
        <mxCell id="1" parent="0" />
        <mxCell id="a10XVoUDFQ1LZGyyS28V-7" style="edgeStyle=orthogonalEdgeStyle;rounded=0;orthogonalLoop=1;jettySize=auto;html=1;entryX=0.5;entryY=0;entryDx=0;entryDy=0;" edge="1" parent="1" source="a10XVoUDFQ1LZGyyS28V-1" target="a10XVoUDFQ1LZGyyS28V-6">
          <mxGeometry relative="1" as="geometry" />
        </mxCell>
        <mxCell id="a10XVoUDFQ1LZGyyS28V-13" style="edgeStyle=orthogonalEdgeStyle;rounded=0;orthogonalLoop=1;jettySize=auto;html=1;entryX=0.5;entryY=0;entryDx=0;entryDy=0;" edge="1" parent="1" source="a10XVoUDFQ1LZGyyS28V-1" target="a10XVoUDFQ1LZGyyS28V-10">
          <mxGeometry relative="1" as="geometry" />
        </mxCell>
        <mxCell id="a10XVoUDFQ1LZGyyS28V-1" value="SliderDinamico con Javascript" style="text;html=1;align=center;verticalAlign=middle;whiteSpace=wrap;rounded=0;" vertex="1" parent="1">
          <mxGeometry x="373" y="10" width="105" height="50" as="geometry" />
        </mxCell>
        <mxCell id="a10XVoUDFQ1LZGyyS28V-18" value="" style="edgeStyle=orthogonalEdgeStyle;rounded=0;orthogonalLoop=1;jettySize=auto;html=1;" edge="1" parent="1" source="a10XVoUDFQ1LZGyyS28V-6" target="a10XVoUDFQ1LZGyyS28V-17">
          <mxGeometry relative="1" as="geometry" />
        </mxCell>
        <mxCell id="a10XVoUDFQ1LZGyyS28V-6" value="Se Seleccionan los elementos de cada etiqueta del slider" style="rounded=1;whiteSpace=wrap;html=1;" vertex="1" parent="1">
          <mxGeometry x="110" y="105" width="120" height="60" as="geometry" />
        </mxCell>
        <mxCell id="a10XVoUDFQ1LZGyyS28V-16" value="" style="edgeStyle=orthogonalEdgeStyle;rounded=0;orthogonalLoop=1;jettySize=auto;html=1;" edge="1" parent="1" source="a10XVoUDFQ1LZGyyS28V-8" target="a10XVoUDFQ1LZGyyS28V-15">
          <mxGeometry relative="1" as="geometry" />
        </mxCell>
        <mxCell id="a10XVoUDFQ1LZGyyS28V-8" value="Se crean los elementos del carousel-inner, carousel-item y la etiqueta img&lt;div&gt;&lt;br&gt;&lt;/div&gt;&lt;div style=&quot;font-size: 10px;&quot;&gt;&lt;div style=&quot;color: rgb(212, 212, 212); font-family: Consolas, &amp;quot;Courier New&amp;quot;, monospace; line-height: 19px; white-space: pre;&quot;&gt;&lt;div style=&quot;&quot;&gt;&lt;span style=&quot;background-color: rgb(26, 26, 26);&quot;&gt;&lt;span style=&quot;color: rgb(86, 156, 214);&quot;&gt;const&lt;/span&gt; &lt;span style=&quot;color: rgb(79, 193, 255);&quot;&gt;carouselItem1&lt;/span&gt; = &lt;span style=&quot;color: rgb(156, 220, 254);&quot;&gt;document&lt;/span&gt;.&lt;span style=&quot;color: rgb(220, 220, 170);&quot;&gt;createElement&lt;/span&gt;(&lt;span style=&quot;color: rgb(206, 145, 120);&quot;&gt;&#39;div&#39;&lt;/span&gt;);&lt;/span&gt;&lt;/div&gt;&lt;div style=&quot;&quot;&gt;&lt;span style=&quot;background-color: rgb(26, 26, 26);&quot;&gt;&amp;nbsp; &amp;nbsp; &lt;span style=&quot;color: #569cd6;&quot;&gt;const&lt;/span&gt; &lt;span style=&quot;color: #4fc1ff;&quot;&gt;picture1&lt;/span&gt; = &lt;span style=&quot;color: #9cdcfe;&quot;&gt;document&lt;/span&gt;.&lt;span style=&quot;color: #dcdcaa;&quot;&gt;createElement&lt;/span&gt;(&lt;span style=&quot;color: #ce9178;&quot;&gt;&#39;picture&#39;&lt;/span&gt;);&lt;/span&gt;&lt;/div&gt;&lt;div style=&quot;&quot;&gt;&lt;span style=&quot;background-color: rgb(26, 26, 26);&quot;&gt;&amp;nbsp; &amp;nbsp; &lt;span style=&quot;color: #569cd6;&quot;&gt;const&lt;/span&gt; &lt;span style=&quot;color: #4fc1ff;&quot;&gt;source1&lt;/span&gt; = &lt;span style=&quot;color: #9cdcfe;&quot;&gt;document&lt;/span&gt;.&lt;span style=&quot;color: #dcdcaa;&quot;&gt;createElement&lt;/span&gt;(&lt;span style=&quot;color: #ce9178;&quot;&gt;&#39;source&#39;&lt;/span&gt;);&lt;/span&gt;&lt;/div&gt;&lt;div style=&quot;&quot;&gt;&lt;span style=&quot;background-color: rgb(26, 26, 26);&quot;&gt;&amp;nbsp; &amp;nbsp; &lt;span style=&quot;color: rgb(86, 156, 214);&quot;&gt;const&lt;/span&gt; &lt;span style=&quot;color: rgb(79, 193, 255);&quot;&gt;img1&lt;/span&gt; = &lt;span style=&quot;color: rgb(156, 220, 254);&quot;&gt;document&lt;/span&gt;.&lt;span style=&quot;color: rgb(220, 220, 170);&quot;&gt;createElement&lt;/span&gt;(&lt;span style=&quot;color: rgb(206, 145, 120);&quot;&gt;&#39;img&#39;&lt;/span&gt;);&lt;/span&gt;&lt;/div&gt;&lt;/div&gt;&lt;/div&gt;" style="rounded=1;whiteSpace=wrap;html=1;" vertex="1" parent="1">
          <mxGeometry x="700" y="380" width="447.74" height="130" as="geometry" />
        </mxCell>
        <mxCell id="a10XVoUDFQ1LZGyyS28V-14" style="edgeStyle=orthogonalEdgeStyle;rounded=0;orthogonalLoop=1;jettySize=auto;html=1;exitX=0.5;exitY=1;exitDx=0;exitDy=0;entryX=0.5;entryY=0;entryDx=0;entryDy=0;" edge="1" parent="1" source="a10XVoUDFQ1LZGyyS28V-10" target="a10XVoUDFQ1LZGyyS28V-8">
          <mxGeometry relative="1" as="geometry" />
        </mxCell>
        <mxCell id="a10XVoUDFQ1LZGyyS28V-21" style="edgeStyle=orthogonalEdgeStyle;rounded=0;orthogonalLoop=1;jettySize=auto;html=1;entryX=1;entryY=0.5;entryDx=0;entryDy=0;" edge="1" parent="1" source="a10XVoUDFQ1LZGyyS28V-10" target="a10XVoUDFQ1LZGyyS28V-19">
          <mxGeometry relative="1" as="geometry" />
        </mxCell>
        <mxCell id="a10XVoUDFQ1LZGyyS28V-10" value="Se crea una funcion donde se eliminen los elementos dentro del slider y se introduscan los creados con la nueva informacion&lt;div&gt;&lt;br&gt;&lt;/div&gt;&lt;div&gt;&lt;div style=&quot;color: rgb(212, 212, 212); font-family: Consolas, &amp;quot;Courier New&amp;quot;, monospace; line-height: 19px; white-space: pre; font-size: 10px;&quot;&gt;&lt;span style=&quot;background-color: rgb(26, 26, 26);&quot;&gt;&lt;span style=&quot;color: rgb(86, 156, 214);&quot;&gt;async&lt;/span&gt; &lt;span style=&quot;color: rgb(86, 156, 214);&quot;&gt;function&lt;/span&gt; &lt;span style=&quot;color: rgb(220, 220, 170);&quot;&gt;getTrendingMoviesPreview&lt;/span&gt;()&lt;/span&gt;&lt;/div&gt;&lt;/div&gt;&lt;div style=&quot;color: rgb(212, 212, 212); font-family: Consolas, &amp;quot;Courier New&amp;quot;, monospace; line-height: 19px; white-space: pre; font-size: 10px;&quot;&gt;&lt;span style=&quot;background-color: rgb(26, 26, 26);&quot;&gt;o&lt;/span&gt;&lt;/div&gt;&lt;div style=&quot;color: rgb(212, 212, 212); font-family: Consolas, &amp;quot;Courier New&amp;quot;, monospace; line-height: 19px; white-space: pre; font-size: 10px;&quot;&gt;&lt;span style=&quot;background-color: rgb(26, 26, 26);&quot;&gt;&lt;span style=&quot;color: rgb(86, 156, 214);&quot;&gt;function&lt;/span&gt; &lt;span style=&quot;color: rgb(220, 220, 170);&quot;&gt;getTrendingMoviesPreview()&lt;/span&gt;&lt;/span&gt;&lt;br&gt;&lt;/div&gt;&lt;div&gt;&lt;br&gt;&lt;/div&gt;&lt;div&gt;Como lo quieras llamar.&lt;/div&gt;&lt;div&gt;Y agregas la linea que borrara el contenido al ser llamada la funcion&lt;/div&gt;&lt;div&gt;&lt;br&gt;&lt;/div&gt;&lt;div style=&quot;&quot;&gt;&lt;div style=&quot;color: rgb(212, 212, 212); font-family: Consolas, &amp;quot;Courier New&amp;quot;, monospace; line-height: 19px; white-space: pre;&quot;&gt;&lt;span style=&quot;background-color: rgb(26, 26, 26);&quot;&gt;&lt;span style=&quot;color: rgb(79, 193, 255);&quot;&gt;carouselInner&lt;/span&gt;.&lt;span style=&quot;color: rgb(156, 220, 254);&quot;&gt;innerHTML&lt;/span&gt; = &lt;span style=&quot;color: rgb(206, 145, 120);&quot;&gt;&quot;&quot;&lt;/span&gt;;&lt;/span&gt;&lt;/div&gt;&lt;/div&gt;" style="rounded=1;whiteSpace=wrap;html=1;" vertex="1" parent="1">
          <mxGeometry x="620" y="105" width="490" height="215" as="geometry" />
        </mxCell>
        <mxCell id="a10XVoUDFQ1LZGyyS28V-15" value="Se agregan los .setAttribute a cada elemento creado con su correcta informacion, tanto contenedores borrados como rutas de imagenes&lt;div&gt;&lt;br&gt;&lt;/div&gt;&lt;div style=&quot;font-size: 10px;&quot;&gt;&lt;div style=&quot;color: rgb(212, 212, 212); font-family: Consolas, &amp;quot;Courier New&amp;quot;, monospace; line-height: 19px; white-space: pre;&quot;&gt;&lt;div style=&quot;&quot;&gt;&lt;span style=&quot;background-color: rgb(26, 26, 26);&quot;&gt;&lt;span style=&quot;color: rgb(79, 193, 255);&quot;&gt;button1&lt;/span&gt;.&lt;span style=&quot;color: rgb(220, 220, 170);&quot;&gt;setAttribute&lt;/span&gt;(&lt;span style=&quot;color: rgb(206, 145, 120);&quot;&gt;&#39;type&#39;&lt;/span&gt;, &lt;span style=&quot;color: rgb(206, 145, 120);&quot;&gt;&#39;button&#39;&lt;/span&gt;);&lt;/span&gt;&lt;/div&gt;&lt;div style=&quot;&quot;&gt;&lt;span style=&quot;background-color: rgb(26, 26, 26);&quot;&gt;&amp;nbsp; &amp;nbsp; &lt;span style=&quot;color: #4fc1ff;&quot;&gt;button1&lt;/span&gt;.&lt;span style=&quot;color: #dcdcaa;&quot;&gt;setAttribute&lt;/span&gt;(&lt;span style=&quot;color: #ce9178;&quot;&gt;&#39;data-bs-target&#39;&lt;/span&gt;, &lt;span style=&quot;color: #ce9178;&quot;&gt;&#39;#carouselExampleIndicators&#39;&lt;/span&gt;);&lt;/span&gt;&lt;/div&gt;&lt;div style=&quot;&quot;&gt;&lt;span style=&quot;background-color: rgb(26, 26, 26);&quot;&gt;&amp;nbsp; &amp;nbsp; &lt;span style=&quot;color: #4fc1ff;&quot;&gt;button1&lt;/span&gt;.&lt;span style=&quot;color: #dcdcaa;&quot;&gt;setAttribute&lt;/span&gt;(&lt;span style=&quot;color: #ce9178;&quot;&gt;&#39;data-bs-slide-to&#39;&lt;/span&gt;, &lt;span style=&quot;color: #b5cea8;&quot;&gt;20&lt;/span&gt;);&lt;/span&gt;&lt;/div&gt;&lt;div style=&quot;&quot;&gt;&lt;span style=&quot;background-color: rgb(26, 26, 26);&quot;&gt;&amp;nbsp; &amp;nbsp; &lt;span style=&quot;color: #4fc1ff;&quot;&gt;button1&lt;/span&gt;.&lt;span style=&quot;color: #4fc1ff;&quot;&gt;classList&lt;/span&gt;.&lt;span style=&quot;color: #dcdcaa;&quot;&gt;add&lt;/span&gt;(&lt;span style=&quot;color: #ce9178;&quot;&gt;&#39;active&#39;&lt;/span&gt;);&lt;/span&gt;&lt;/div&gt;&lt;div style=&quot;&quot;&gt;&lt;span style=&quot;background-color: rgb(26, 26, 26);&quot;&gt;&amp;nbsp; &amp;nbsp; &lt;span style=&quot;color: #4fc1ff;&quot;&gt;button1&lt;/span&gt;.&lt;span style=&quot;color: #dcdcaa;&quot;&gt;setAttribute&lt;/span&gt;(&lt;span style=&quot;color: #ce9178;&quot;&gt;&#39;aria-current&#39;&lt;/span&gt;, &lt;span style=&quot;color: #ce9178;&quot;&gt;&#39;true&#39;&lt;/span&gt;);&lt;/span&gt;&lt;/div&gt;&lt;div style=&quot;&quot;&gt;&lt;span style=&quot;background-color: rgb(26, 26, 26);&quot;&gt;&amp;nbsp; &amp;nbsp; &lt;span style=&quot;color: #4fc1ff;&quot;&gt;button1&lt;/span&gt;.&lt;span style=&quot;color: #dcdcaa;&quot;&gt;setAttribute&lt;/span&gt;(&lt;span style=&quot;color: #ce9178;&quot;&gt;&#39;area-label&#39;&lt;/span&gt;, &lt;span style=&quot;color: #ce9178;&quot;&gt;&#39;slide &#39;&lt;/span&gt; + (&lt;span style=&quot;color: #b5cea8;&quot;&gt;21&lt;/span&gt;));&lt;/span&gt;&lt;/div&gt;&lt;div style=&quot;&quot;&gt;&lt;span style=&quot;background-color: rgb(26, 26, 26);&quot;&gt;&amp;nbsp; &amp;nbsp; &lt;span style=&quot;color: rgb(79, 193, 255);&quot;&gt;carouselIndicators&lt;/span&gt;.&lt;span style=&quot;color: rgb(220, 220, 170);&quot;&gt;appendChild&lt;/span&gt;(&lt;span style=&quot;color: rgb(79, 193, 255);&quot;&gt;button1&lt;/span&gt;);&lt;/span&gt;&lt;/div&gt;&lt;/div&gt;&lt;/div&gt;" style="rounded=1;whiteSpace=wrap;html=1;" vertex="1" parent="1">
          <mxGeometry x="842.25" y="590" width="507.75" height="200" as="geometry" />
        </mxCell>
        <mxCell id="a10XVoUDFQ1LZGyyS28V-20" value="" style="edgeStyle=orthogonalEdgeStyle;rounded=0;orthogonalLoop=1;jettySize=auto;html=1;" edge="1" parent="1" source="a10XVoUDFQ1LZGyyS28V-17" target="a10XVoUDFQ1LZGyyS28V-19">
          <mxGeometry relative="1" as="geometry" />
        </mxCell>
        <mxCell id="a10XVoUDFQ1LZGyyS28V-17" value="Se crea una funcion flecha que ejecute una funcion creada al realizarse un evento click" style="rounded=1;whiteSpace=wrap;html=1;" vertex="1" parent="1">
          <mxGeometry x="110" y="245" width="170" height="85" as="geometry" />
        </mxCell>
        <mxCell id="a10XVoUDFQ1LZGyyS28V-23" value="" style="edgeStyle=orthogonalEdgeStyle;rounded=0;orthogonalLoop=1;jettySize=auto;html=1;" edge="1" parent="1" source="a10XVoUDFQ1LZGyyS28V-19" target="a10XVoUDFQ1LZGyyS28V-22">
          <mxGeometry relative="1" as="geometry" />
        </mxCell>
        <mxCell id="a10XVoUDFQ1LZGyyS28V-19" value="Se llama a la funcion" style="whiteSpace=wrap;html=1;rounded=1;" vertex="1" parent="1">
          <mxGeometry x="135" y="390" width="120" height="60" as="geometry" />
        </mxCell>
        <mxCell id="a10XVoUDFQ1LZGyyS28V-22" value="Dependiendo del boton que oprima es el contenido que se generara dentro del slider" style="whiteSpace=wrap;html=1;rounded=1;" vertex="1" parent="1">
          <mxGeometry x="135" y="530" width="175" height="90" as="geometry" />
        </mxCell>
      </root>
    </mxGraphModel>
  </diagram>
</mxfile>
